{
    "accessors" : [
        {
            "bufferView" : 0, 
            "componentType" : 5125, 
            "count" : 1500000, 
            "max" : [
                358099
            ], 
            "min" : [
                0
            ], 
            "type" : "SCALAR"
        }, 
        {
            "bufferView" : 1, 
            "componentType" : 5126, 
            "count" : 358100, 
            "max" : [
                11.530741691589355, 
                44.85202407836914, 
                7.199685573577881
            ], 
            "min" : [
                -7.17264461517334, 
                2.6839771270751953, 
                -15.881298065185547
            ], 
            "type" : "VEC3"
        }, 
        {
            "bufferView" : 2, 
            "componentType" : 5126, 
            "count" : 358100, 
            "max" : [
                1.0, 
                1.0, 
                0.999969482421875
            ], 
            "min" : [
                -1.0, 
                -0.999969482421875, 
                -0.999908447265625
            ], 
            "type" : "VEC3"
        }, 
        {
            "bufferView" : 3, 
            "componentType" : 5126, 
            "count" : 358100, 
            "max" : [
                1.0, 
                1.0, 
                0.9996625781059265, 
                1.0
            ], 
            "min" : [
                -0.999999463558197, 
                -1.0, 
                -0.9979000687599182, 
                1.0
            ], 
            "type" : "VEC4"
        }, 
        {
            "bufferView" : 4, 
            "componentType" : 5126, 
            "count" : 358100, 
            "max" : [
                0.9985020160675049, 
                0.9974410000722855
            ], 
            "min" : [
                0.0009769999887794256, 
                0.07519501447677612
            ], 
            "type" : "VEC2"
        }
    ], 
    "asset" : {
        "generator" : "Khronos Blender glTF 2.0 exporter", 
        "version" : "2.0"
    }, 
    "bufferViews" : [
        {
            "buffer" : 0, 
            "byteLength" : 6000000, 
            "byteOffset" : 0, 
            "target" : 34963
        }, 
        {
            "buffer" : 0, 
            "byteLength" : 4297200, 
            "byteOffset" : 6000000, 
            "target" : 34962
        }, 
        {
            "buffer" : 0, 
            "byteLength" : 4297200, 
            "byteOffset" : 10297200, 
            "target" : 34962
        }, 
        {
            "buffer" : 0, 
            "byteLength" : 5729600, 
            "byteOffset" : 14594400, 
            "target" : 34962
        }, 
        {
            "buffer" : 0, 
            "byteLength" : 2864800, 
            "byteOffset" : 20324000, 
            "target" : 34962
        }
    ], 
    "buffers" : [
        {
            "byteLength" : 23188800, 
            "uri" : "haggsta.bin"
        }
    ], 
    "cameras" : [
        {
            "name" : "Camera", 
            "perspective" : {
                "aspectRatio" : 1.7777777777777777, 
                "yfov" : 0.5033799372418416, 
                "zfar" : 100.0, 
                "znear" : 0.10000000149011612
            }, 
            "type" : "perspective"
        }
    ], 
    "images" : [
        {
            "uri" : "Haggstaklippan_u1_v1.png"
        }
    ], 
    "materials" : [
        {
            "alphaMode" : "BLEND", 
            "name" : "Haggstaklippan_Material_u1_v1", 
            "pbrMetallicRoughness" : {
                "baseColorTexture" : {
                    "index" : 0
                }, 
                "metallicFactor" : 0.0
            }
        }
    ], 
    "meshes" : [
        {
            "name" : "default", 
            "primitives" : [
                {
                    "attributes" : {
                        "NORMAL" : 2, 
                        "POSITION" : 1, 
                        "TANGENT" : 3, 
                        "TEXCOORD_0" : 4
                    }, 
                    "indices" : 0, 
                    "material" : 0
                }
            ]
        }
    ], 
    "nodes" : [
        {
            "camera" : 0, 
            "name" : "Correction_Camera", 
            "rotation" : [
                -0.7071067690849304, 
                -0.0, 
                0.0, 
                0.7071067690849304
            ]
        }, 
        {
            "children" : [
                0
            ], 
            "name" : "Camera", 
            "rotation" : [
                0.483536034822464, 
                0.33687159419059753, 
                -0.20870360732078552, 
                0.7804827094078064
            ], 
            "translation" : [
                7.481131553649902, 
                5.34366512298584, 
                6.5076398849487305
            ]
        }, 
        {
            "mesh" : 0, 
            "name" : "default", 
            "rotation" : [
                0.012168428860604763, 
                0.08451467752456665, 
                -0.007889125496149063, 
                0.9963167309761047
            ], 
            "scale" : [
                1.0050592422485352, 
                1.0050592422485352, 
                1.0050592422485352
            ], 
            "translation" : [
                -2.895852565765381, 
                -2.836276054382324, 
                -0.0
            ]
        }, 
        {
            "name" : "Lamp", 
            "rotation" : [
                0.16907575726509094, 
                0.7558802962303162, 
                -0.27217137813568115, 
                0.570947527885437
            ], 
            "scale" : [
                1.0, 
                1.0, 
                0.9999999403953552
            ], 
            "translation" : [
                4.076245307922363, 
                5.903861999511719, 
                -1.0054539442062378
            ]
        }
    ], 
    "samplers" : [
        {}
    ], 
    "scene" : 0, 
    "scenes" : [
        {
            "name" : "Scene", 
            "nodes" : [
                2, 
                3, 
                1
            ]
        }
    ], 
    "textures" : [
        {
            "sampler" : 0, 
            "source" : 0
        }
    ]
}
